<?xml version="1.0" encoding="UTF-8" standalone="no"?>
<!-- Created with Inkscape (http://www.inkscape.org/) -->

<svg
   xmlns:dc="http://purl.org/dc/elements/1.1/"
   xmlns:cc="http://creativecommons.org/ns#"
   xmlns:rdf="http://www.w3.org/1999/02/22-rdf-syntax-ns#"
   xmlns:svg="http://www.w3.org/2000/svg"
   xmlns="http://www.w3.org/2000/svg"
   xmlns:sodipodi="http://sodipodi.sourceforge.net/DTD/sodipodi-0.dtd"
   xmlns:inkscape="http://www.inkscape.org/namespaces/inkscape"
   viewBox="0 0 210 297"
   version="1.1"
   id="svg21759"
   inkscape:version="0.92.4 (5da689c313, 2019-01-14)"
   sodipodi:docname="smiley.svg">
  <defs
     id="defs21753">
    <clipPath
       clipPathUnits="userSpaceOnUse"
       id="clipPath18">
      <path
         d="M 0,800 H 650 V 0 H 0 Z"
         id="path16"
         inkscape:connector-curvature="0" />
    </clipPath>
    <clipPath
       clipPathUnits="userSpaceOnUse"
       id="clipPath6722">
      <path
         d="M 0,800 H 650 V 0 H 0 Z"
         id="path6720"
         inkscape:connector-curvature="0" />
    </clipPath>
    <clipPath
       clipPathUnits="userSpaceOnUse"
       id="clipPath13902">
      <path
         d="M 0,800 H 650 V 0 H 0 Z"
         id="path13900"
         inkscape:connector-curvature="0" />
    </clipPath>
    <clipPath
       clipPathUnits="userSpaceOnUse"
       id="clipPath20442">
      <path
         d="M 0,800 H 650 V 0 H 0 Z"
         id="path20440"
         inkscape:connector-curvature="0" />
    </clipPath>
    <clipPath
       clipPathUnits="userSpaceOnUse"
       id="clipPath20662">
      <path
         d="M 0,800 H 650 V 0 H 0 Z"
         id="path20660"
         inkscape:connector-curvature="0" />
    </clipPath>
    <clipPath
       id="clipPath1014"
       clipPathUnits="userSpaceOnUse">
      <path
         inkscape:connector-curvature="0"
         id="path1012"
         d="M 0,953.303 H 925.484 V 0 H 0 Z" />
    </clipPath>
    <clipPath
       id="clipPath11793"
       clipPathUnits="userSpaceOnUse">
      <path
         inkscape:connector-curvature="0"
         id="path11791"
         d="M 0,833.76 H 1059.617 V 0 H 0 Z" />
    </clipPath>
  </defs>
  <sodipodi:namedview
     id="base"
     pagecolor="#ffffff"
     bordercolor="#666666"
     borderopacity="1.0"
     inkscape:pageopacity="0.0"
     inkscape:pageshadow="2"
     inkscape:zoom="0.3236263"
     inkscape:cx="-24.81189"
     inkscape:cy="749.2241"
     inkscape:document-units="mm"
     inkscape:current-layer="g1008"
     showgrid="false"
     showguides="true"
     inkscape:guide-bbox="true"
     inkscape:window-width="1920"
     inkscape:window-height="1001"
     inkscape:window-x="-9"
     inkscape:window-y="-9"
     inkscape:window-maximized="1">
    <sodipodi:guide
       position="176.69565,253.35726"
       orientation="0,1"
       id="guide22306"
       inkscape:locked="false" />
    <sodipodi:guide
       position="235.5942,43.94019"
       orientation="0,1"
       id="guide22308"
       inkscape:locked="false" />
  </sodipodi:namedview>
  <metadata
     id="metadata21756">
    <rdf:RDF>
      <cc:Work
         rdf:about="">
        <dc:format>image/svg+xml</dc:format>
        <dc:type
           rdf:resource="http://purl.org/dc/dcmitype/StillImage" />
        <dc:title></dc:title>
      </cc:Work>
    </rdf:RDF>
  </metadata>
  <g
     stroke="red"
     stroke-width="3"
     inkscape:label="Layer 1"
     inkscape:groupmode="layer"
     id="layer1">
    <g
       transform="matrix(0.35277777,0,0,-0.35277777,-0.22062239,367.45296)"
       inkscape:label="eyes-line-art-5019556"
       id="g1006">
      <g
         id="g1008">
        <g
           id="g12074"
           transform="translate(35.761674,6.0844543)">
          <g
             transform="matrix(1.6312795,0,0,1.6312795,163.76591,786.2362)"
             id="g40">
            <path
               inkscape:connector-curvature="0"
               id="path42"
               style="fill:red;fill-opacity:1;fill-rule:nonzero;"
               d="m 0,0 c -1.096,-0.56 -2.02,-0.991 -2.904,-1.493 -1.875,-1.062 -3.756,-2.12 -5.589,-3.252 -7.588,-4.685 -14.348,-10.386 -20.272,-17.028 -12.005,-13.458 -20.048,-29.081 -24.898,-46.383 -1.962,-6.998 -3.404,-14.104 -4.155,-21.353 -0.434,-4.181 -0.815,-8.365 -0.889,-12.559 -0.211,-11.973 1.05,-23.792 4.014,-35.411 3.511,-13.77 9.164,-26.575 17.339,-38.226 6.569,-9.361 14.315,-17.595 23.615,-24.317 4.977,-3.598 10.207,-6.779 15.681,-9.56 5.777,-2.935 11.729,-5.476 17.871,-7.518 7.116,-2.366 14.409,-4.05 21.819,-5.244 7.757,-1.249 15.558,-1.785 23.405,-1.689 1.928,0.024 3.852,0.262 5.78,0.318 4.323,0.125 8.586,0.719 12.848,1.415 9.676,1.579 19.041,4.201 28.08,8.015 8.727,3.682 16.892,8.294 24.372,14.128 6.584,5.136 12.234,11.156 17.258,17.789 3.574,4.719 6.553,9.802 9.295,15.041 4.648,8.885 8.162,18.211 10.944,27.823 1.895,6.545 3.424,13.18 4.344,19.935 0.612,4.495 1.237,9.006 1.479,13.53 0.482,8.961 0.28,17.905 -1.024,26.827 -1.054,7.217 -2.761,14.258 -5.074,21.146 -3.344,9.956 -8.112,19.216 -14.163,27.811 -6.525,9.269 -14.349,17.27 -23.466,24.003 -9.898,7.31 -20.927,12.245 -32.791,15.349 -7.481,1.957 -15.08,3.296 -22.815,3.716 C 73.522,13.171 66.938,13.071 60.357,12.686 59.904,12.66 59.431,12.68 59.008,12.547 58.598,12.418 58.153,12.195 57.882,11.878 57.445,11.369 57.18,10.716 56.769,10.182 55.966,9.138 54.928,8.531 53.552,8.599 51.964,8.677 50.37,8.659 48.787,8.787 44.928,9.098 41.068,8.941 37.21,8.841 36.195,8.815 35.152,8.756 34.178,8.501 29.897,7.382 25.594,6.356 21.369,5.023 16.499,3.486 11.655,1.88 6.872,0.088 5.6,-0.389 4.283,-0.75 2.981,-1.143 2.405,-1.317 1.854,-1.159 1.35,-0.871 0.961,-0.649 0.596,-0.387 0,0 m 59.798,-233.675 c -6.799,0.013 -12.452,0.427 -18.095,1.121 -5.413,0.666 -10.77,1.607 -16.089,2.81 -5.213,1.18 -10.306,2.744 -15.309,4.598 -7.145,2.647 -14.037,5.83 -20.602,9.72 -3.815,2.261 -7.456,4.759 -11.007,7.413 -11.521,8.617 -20.798,19.229 -28.282,31.465 -5.964,9.752 -10.287,20.204 -13.362,31.188 -3.045,10.872 -4.692,21.955 -4.954,33.243 -0.109,4.655 -0.092,9.312 0.244,13.955 0.747,10.332 2.554,20.476 5.489,30.421 3.426,11.604 8.337,22.555 14.519,32.93 3.725,6.253 8.12,12.036 12.982,17.465 4.409,4.921 9.203,9.415 14.498,13.368 6.484,4.841 13.44,8.867 20.886,12.058 5.125,2.197 10.395,3.927 15.805,5.257 1.432,0.351 2.868,0.703 4.275,1.138 4.772,1.475 9.586,2.793 14.455,3.903 4.758,1.086 9.537,2.026 14.365,2.775 4.944,0.767 9.922,1.136 14.882,1.712 1.688,0.196 3.399,0.219 5.102,0.264 7.615,0.199 15.226,0.054 22.786,-0.908 17.017,-2.168 32.94,-7.471 47.323,-16.984 5.892,-3.897 11.246,-8.455 16.159,-13.532 6.35,-6.561 11.705,-13.862 16.305,-21.736 6.41,-10.974 10.816,-22.717 13.525,-35.108 1.504,-6.881 2.48,-13.836 2.974,-20.872 0.31,-4.425 0.425,-8.844 0.282,-13.267 -0.116,-3.627 -0.367,-7.256 -0.706,-10.869 -0.689,-7.353 -1.933,-14.617 -3.641,-21.805 -2.181,-9.186 -5.131,-18.1 -8.909,-26.763 -4.098,-9.4 -9.032,-18.306 -14.981,-26.659 -3.303,-4.637 -7.037,-8.899 -11.059,-12.918 -10.658,-10.653 -23.069,-18.672 -36.906,-24.56 -8.068,-3.433 -16.393,-6.058 -24.983,-7.773 -6.792,-1.356 -13.629,-2.451 -20.578,-2.675 -2.836,-0.093 -5.668,-0.285 -7.393,-0.375" />
          </g>
          <g
             transform="matrix(1.6312795,0,0,1.6312795,135.86687,654.55034)"
             id="g124">
            <path
               inkscape:connector-curvature="0"
               id="path126"
               style="fill:red;fill-opacity:1;fill-rule:nonzero;"
               d="M 0,0 C -0.541,-1.101 -0.825,-2.3 -1.06,-3.517 -1.727,-6.981 -1.977,-10.48 -1.915,-14 c 0.118,-6.724 1.35,-13.282 2.932,-19.793 0.285,-1.178 0.814,-2.039 1.789,-2.744 5.614,-4.056 11.466,-7.718 17.686,-10.779 0.505,-0.249 1.036,-0.446 1.559,-0.659 0.265,-0.108 0.774,0.164 0.78,0.423 0.037,1.469 0.103,2.939 0.1,4.407 -0.018,7.511 0.818,14.921 2.516,22.24 0.287,1.236 0.666,2.39 1.404,3.424 0.249,0.349 0.059,0.931 -0.339,1.132 -1.113,0.564 -2.241,1.095 -3.344,1.673 -1.606,0.84 -3.215,1.675 -4.789,2.572 C 12.658,-8.841 7.212,-5.173 2.104,-1.007 1.669,-0.651 1.198,-0.331 0.713,-0.047 0.545,0.051 0.282,-0.013 0,0 m 67,-43.351 c -0.015,0 -0.028,0 -0.042,-10e-4 0,2.039 0.011,4.078 -0.003,6.117 -0.017,2.717 -0.041,5.436 -0.089,8.153 -0.018,1.054 -0.367,1.462 -1.32,1.659 -0.665,0.136 -1.337,0.238 -2.007,0.351 -2.902,0.487 -5.817,0.91 -8.705,1.47 -6.458,1.254 -12.779,3.005 -18.918,5.388 -1.056,0.409 -2.131,0.766 -3.199,1.14 -0.273,0.095 -0.759,-0.143 -0.829,-0.405 -0.263,-0.983 -0.588,-1.956 -0.76,-2.955 -0.731,-4.244 -1.265,-8.512 -1.371,-12.824 -0.126,-5.103 0.145,-10.188 0.654,-15.264 0.079,-0.791 0.531,-1.247 1.205,-1.466 3.121,-1.017 6.235,-2.061 9.384,-2.981 4.787,-1.398 9.666,-2.411 14.592,-3.176 3.358,-0.522 6.735,-0.927 10.138,-1.026 0.336,-0.01 0.69,0.007 1.007,0.103 0.188,0.057 0.434,0.279 0.457,0.453 0.088,0.667 0.144,1.345 0.129,2.017 -0.095,4.416 -0.213,8.831 -0.323,13.247 m 44.678,-12.066 c 0.094,0.191 0.175,0.288 0.19,0.394 0.08,0.554 0.189,1.11 0.205,1.668 0.196,6.462 -0.089,12.911 -0.77,19.335 -0.275,2.586 -0.787,5.147 -1.212,7.716 -0.137,0.827 -0.668,1.207 -1.414,1.082 -0.223,-0.037 -0.441,-0.104 -0.663,-0.142 -4.015,-0.694 -8.007,-1.497 -12.066,-1.964 -6.316,-0.727 -12.635,-1.129 -18.991,-0.827 -1.244,0.059 -2.489,0.116 -3.735,0.137 -0.995,0.017 -1.451,-0.451 -1.448,-1.431 0.003,-0.679 0.03,-1.359 0.059,-2.037 0.291,-6.675 0.564,-13.351 0.889,-20.024 0.115,-2.374 0.347,-4.743 0.544,-7.113 0.047,-0.583 0.521,-1.006 1.156,-1.005 3.511,0.006 7.039,-0.179 10.528,0.109 3.606,0.299 7.222,0.534 10.82,1.028 4.605,0.633 9.168,1.445 13.706,2.426 0.767,0.166 1.512,0.442 2.202,0.648 M 28.605,-81.003 c 0.245,-0.785 0.857,-1.131 1.386,-1.533 5.636,-4.281 11.736,-7.739 18.331,-10.324 9.088,-3.562 18.516,-5.315 28.27,-5.319 6.618,-0.003 13.132,0.878 19.554,2.44 10.971,2.669 20.933,7.427 29.743,14.514 4.622,3.719 8.716,7.968 12.186,12.78 7.646,10.598 12.245,22.458 14.379,35.302 1.288,7.753 1.627,15.567 1.316,23.414 -0.023,0.567 -0.053,1.134 -0.095,1.7 -0.084,1.152 -0.568,1.452 -1.478,0.922 -0.49,-0.286 -0.978,-0.575 -1.457,-0.881 -7.574,-4.856 -15.57,-8.875 -24.01,-12.001 -2.126,-0.788 -4.292,-1.466 -6.442,-2.193 -0.859,-0.29 -1.724,-0.568 -2.582,-0.862 -0.423,-0.146 -0.769,-0.611 -0.739,-1.027 0.057,-0.79 0.097,-1.585 0.23,-2.364 1.206,-7.065 1.791,-14.18 1.762,-21.347 -0.006,-1.362 -0.01,-2.724 0.02,-4.086 0.01,-0.437 0.134,-0.871 0.197,-1.249 0.682,-0.258 1.218,-0.021 1.747,0.158 3.654,1.232 7.314,2.432 10.878,3.935 3.977,1.677 7.888,3.479 11.717,5.468 1.005,0.523 2.029,1.02 3.079,1.445 1.402,0.568 2.522,-0.327 2.34,-1.843 -0.053,-0.442 -0.179,-0.887 -0.351,-1.298 -0.461,-1.108 -1.373,-1.757 -2.399,-2.309 -5.197,-2.799 -10.437,-5.501 -15.941,-7.671 -2.852,-1.124 -5.733,-2.154 -8.648,-3.1 -0.852,-0.276 -1.748,-0.465 -2.407,-1.061 -0.402,-0.665 -0.326,-1.36 -0.371,-2.033 -0.401,-6.005 -0.472,-12.021 -0.581,-18.035 -0.016,-0.908 -0.023,-1.817 -0.083,-2.723 -0.139,-2.139 -1.307,-3.566 -3.189,-4.466 -0.63,-0.302 -1.304,-0.358 -1.994,-0.276 -0.638,0.077 -1.306,0.634 -1.499,1.229 -0.323,0.993 -0.301,2.01 -0.274,3.034 0.164,6.127 0.318,12.254 0.475,18.381 0.012,0.454 0.038,0.907 0.042,1.361 0.01,1.15 -0.344,1.505 -1.367,1.331 -0.895,-0.152 -1.787,-0.324 -2.672,-0.526 -4.986,-1.14 -10.03,-1.919 -15.106,-2.516 -4.741,-0.557 -9.502,-0.806 -14.27,-0.957 -1.134,-0.036 -2.269,-0.081 -3.402,-0.143 -0.624,-0.034 -1.053,-0.49 -1.021,-1.1 0.107,-2.039 0.208,-4.079 0.363,-6.115 0.362,-4.752 0.756,-9.502 1.13,-14.254 0.107,-1.358 0.226,-2.716 0.273,-4.076 0.093,-2.699 -1.455,-4.762 -4.103,-5.543 -0.722,-0.213 -1.689,0.301 -1.892,1.055 -0.144,0.541 -0.261,1.102 -0.294,1.661 -0.485,8.384 -0.955,16.768 -1.428,25.153 -0.038,0.68 -0.062,1.361 -0.115,2.039 -0.08,1.035 -0.483,1.487 -1.399,1.603 -0.226,0.029 -0.451,0.058 -0.678,0.073 -3.968,0.253 -7.9,0.795 -11.83,1.403 -5.397,0.833 -10.667,2.177 -15.898,3.701 -1.525,0.444 -3.027,0.965 -4.54,1.444 -0.323,0.103 -0.655,0.183 -0.985,0.264 -0.465,0.115 -0.952,-0.271 -0.881,-0.74 0.383,-2.579 0.763,-5.159 1.186,-7.732 0.405,-2.463 0.856,-4.918 1.294,-7.375 0.233,-1.305 -0.088,-2.474 -0.834,-3.544 -0.793,-1.138 -1.734,-2.093 -3.094,-2.555 -0.529,-0.18 -1.037,-0.422 -1.549,-0.633 M 4.784,-43.615 c 0.047,-0.239 0.007,-0.281 -0.12,-0.124 0.072,0.023 0.145,0.045 0.216,0.068 -0.302,-0.361 -0.472,-0.77 -0.392,-1.243 0.057,-0.333 0.13,-0.668 0.242,-0.986 2.911,-8.261 6.691,-16.079 11.882,-23.169 2.616,-3.571 5.521,-6.884 8.912,-9.748 0.341,-0.288 0.67,-0.586 1.166,-0.523 0.036,0.214 0.133,0.439 0.099,0.642 -1.235,7.25 -2.329,14.519 -3.136,21.829 -0.049,0.45 -0.026,0.929 -0.185,1.337 -0.153,0.395 -0.428,0.819 -0.772,1.047 -0.655,0.434 -1.384,0.764 -2.104,1.091 -3.306,1.501 -6.419,3.354 -9.494,5.265 -2.202,1.367 -4.433,2.709 -6.314,4.514 m -11.01,42.38 c -0.686,-0.226 -1.458,-0.421 -2.181,-0.728 -2,-0.848 -4.121,-1.268 -6.212,-1.777 -0.867,-0.21 -1.798,-0.201 -2.7,-0.205 -0.789,-0.004 -1.434,0.621 -1.66,1.469 -0.058,0.217 -0.126,0.441 -0.127,0.663 -0.01,2.227 1.538,4.564 3.606,5.303 1.172,0.418 2.395,0.701 3.604,1.011 4.774,1.226 9.211,3.211 13.303,5.945 1.413,0.944 2.733,2.029 4.093,3.052 0.634,0.477 1.229,1.018 1.902,1.43 1.735,1.058 3.797,-0.042 4.022,-2.097 0.118,-1.083 -0.196,-2.034 -0.903,-2.83 C 9.771,9.157 8.961,8.367 8.219,7.596 8.328,6.88 8.813,6.578 9.252,6.245 12.517,3.777 15.943,1.557 19.45,-0.548 c 11.005,-6.607 22.865,-11.068 35.33,-13.926 5.194,-1.191 10.481,-1.942 15.8,-2.475 5.213,-0.522 10.426,-0.599 15.65,-0.529 6.033,0.082 11.999,0.802 17.938,1.813 5.152,0.878 10.242,2.01 15.24,3.547 9.821,3.02 19.087,7.242 27.75,12.773 0.571,0.365 1.11,0.782 1.656,1.183 0.254,0.187 0.295,0.729 0.065,0.902 -0.723,0.545 -1.454,1.078 -2.183,1.616 -0.729,0.54 -1.51,1.022 -2.176,1.631 -0.992,0.907 -1.424,2.077 -1.017,3.396 0.791,2.563 2.436,4.31 5.081,5.015 0.563,0.15 1.16,0.134 1.665,-0.139 0.995,-0.537 1.994,-1.088 2.911,-1.744 3.625,-2.591 7.541,-4.625 11.686,-6.234 1.162,-0.451 2.353,-0.828 3.53,-1.244 0.854,-0.304 1.723,-0.578 2.556,-0.932 1.145,-0.487 1.653,-1.467 1.463,-2.77 -0.372,-2.543 -1.783,-4.369 -3.993,-5.597 -0.704,-0.391 -1.507,-0.509 -2.314,-0.448 -0.789,0.058 -1.574,0.172 -2.362,0.248 -0.409,0.038 -0.863,-0.412 -0.872,-0.855 -0.01,-0.567 -0.02,-1.134 0,-1.7 0.054,-1.474 0.163,-2.948 0.182,-4.422 0.15,-11.537 -1.185,-22.884 -4.55,-33.944 -3.51,-11.543 -9.046,-22.009 -16.92,-31.2 -2.295,-2.68 -4.81,-5.14 -7.412,-7.511 -9.447,-8.608 -20.24,-14.956 -32.373,-18.97 -5.722,-1.893 -11.605,-3.092 -17.613,-3.761 -4.535,-0.506 -9.064,-0.638 -13.604,-0.396 -13.963,0.745 -27.059,4.489 -39.085,11.676 -6.88,4.112 -12.831,9.351 -17.9,15.574 -6.301,7.737 -10.94,16.403 -14.44,25.711 -2.688,7.148 -4.401,14.543 -5.575,22.07 -0.401,2.578 -0.78,5.163 -1.035,7.758 -0.715,7.28 -0.594,14.511 1.575,21.587 0.164,0.531 0.308,1.1 -0.33,1.61" />
          </g>
          <g
             transform="matrix(1.6312795,0,0,1.6312795,273.20183,740.97227)"
             id="g128">
            <path
               inkscape:connector-curvature="0"
               id="path130"
               style="fill:red;fill-opacity:1;fill-rule:nonzero;"
               d="m 0,0 c 0.057,5.925 4.16,11.01 9.896,12.14 3.112,0.612 5.737,-0.169 7.878,-2.715 3.511,-4.175 3.399,-9.661 1.161,-13.65 -1.475,-2.629 -3.673,-4.564 -6.188,-6.165 -0.19,-0.12 -0.405,-0.2 -0.611,-0.296 C 9.275,-12.008 6.594,-11.689 4.245,-9.608 1.385,-7.074 -0.078,-3.861 0,0" />
          </g>
          <g
             transform="matrix(1.6312795,0,0,1.6312795,223.1945,757.19502)"
             id="g132">
            <path
               inkscape:connector-curvature="0"
               id="path134"
               style="fill:red;fill-opacity:1;fill-rule:nonzero;"
               d="m 0,0 c 1.407,0.032 2.685,-0.43 3.849,-1.15 2.696,-1.668 4.621,-4.074 5.654,-7.003 1.519,-4.309 0.239,-10.528 -4.688,-13.784 -1.716,-1.135 -3.556,-1.96 -5.656,-2.115 -2.693,-0.198 -4.882,0.742 -6.543,2.852 -1.22,1.549 -1.894,3.346 -2.067,5.3 -0.089,1.008 -0.116,2.044 0.012,3.044 0.407,3.178 1.45,6.154 3.135,8.886 0.843,1.366 1.92,2.509 3.378,3.254 C -1.816,-0.148 -1.218,0.015 0,0" />
          </g>
        </g>
      </g>
    </g>
  </g>
</svg>
