<?xml version="1.0" encoding="UTF-8" standalone="no"?>
<!-- Created with Inkscape (http://www.inkscape.org/) -->

<svg
   xmlns:dc="http://purl.org/dc/elements/1.1/"
   xmlns:cc="http://creativecommons.org/ns#"
   xmlns:rdf="http://www.w3.org/1999/02/22-rdf-syntax-ns#"
   xmlns:svg="http://www.w3.org/2000/svg"
   xmlns="http://www.w3.org/2000/svg"
   xmlns:sodipodi="http://sodipodi.sourceforge.net/DTD/sodipodi-0.dtd"
   xmlns:inkscape="http://www.inkscape.org/namespaces/inkscape"
   viewBox="0 0 210 297"
   version="1.1"
   id="svg3631"
   inkscape:version="0.92.4 (5da689c313, 2019-01-14)"
   sodipodi:docname="emoji.svg">
  <defs
     id="defs3625">
    <clipPath
       clipPathUnits="userSpaceOnUse"
       id="clipPath18">
      <path
         d="M 0,600.949 H 847.559 V 0 H 0 Z"
         id="path16"
         inkscape:connector-curvature="0" />
    </clipPath>
    <linearGradient
       id="a"
       x1="104.73"
       x2="494.51999"
       y1="335.72"
       y2="895.84003"
       gradientUnits="userSpaceOnUse">
      <stop
         stop-color="#e00"
         offset="0"
         id="stop2" />
      <stop
         stop-color="#9a0000"
         offset="1"
         id="stop4" />
    </linearGradient>
  </defs>
  <sodipodi:namedview
     id="base"
     pagecolor="#ffffff"
     bordercolor="#666666"
     borderopacity="1.0"
     inkscape:pageopacity="0.0"
     inkscape:pageshadow="2"
     inkscape:zoom="0.37007452"
     inkscape:cx="-42.42043"
     inkscape:cy="152.79221"
     inkscape:document-units="mm"
     inkscape:current-layer="g1344"
     showgrid="false"
     showguides="true"
     inkscape:guide-bbox="true"
     inkscape:window-width="1920"
     inkscape:window-height="1001"
     inkscape:window-x="-9"
     inkscape:window-y="-9"
     inkscape:window-maximized="1"
     inkscape:snap-global="false">
    <sodipodi:guide
       position="72.922013,252.88982"
       orientation="0,1"
       id="guide4178"
       inkscape:locked="false" />
    <sodipodi:guide
       position="99.099147,43.94019"
       orientation="0,1"
       id="guide4180"
       inkscape:locked="false" />
  </sodipodi:namedview>
  <metadata
     id="metadata3628">
    <rdf:RDF>
      <cc:Work
         rdf:about="">
        <dc:format>image/svg+xml</dc:format>
        <dc:type
           rdf:resource="http://purl.org/dc/dcmitype/StillImage" />
        <dc:title></dc:title>
      </cc:Work>
    </rdf:RDF>
  </metadata>
  <g
     inkscape:label="Layer 1"
     inkscape:groupmode="layer"
     id="layer1">
    <g
       id="g11993"
       stroke="red"
       stroke-width="3"
       transform="translate(0.01320793,-14.655723)">
      <g
         id="g1344">
        <g
           id="g1607"
           transform="matrix(1.1506832,0,0,1.1506832,140.37708,-232.07039)">
          <g
             transform="matrix(0.50902012,0,0,-0.50902012,-31.620722,401.93399)"
             id="g48">
            <path
               inkscape:connector-curvature="0"
               id="path50"
               style="fill:red;fill-opacity:1;fill-rule:nonzero;"
               d="m 0,0 c 6.826,-0.023 13.596,0.561 20.314,1.796 9.301,1.71 18.311,4.352 26.968,8.178 4.051,1.789 8.045,3.695 11.856,5.953 6.752,4 13.135,8.509 19.059,13.676 5.235,4.566 10.077,9.502 14.395,14.93 6.53,8.206 11.998,17.076 16.208,26.694 2.55,5.825 4.722,11.785 6.337,17.947 1.383,5.275 2.493,10.601 3.15,16.012 0.381,3.151 0.716,6.319 0.849,9.488 0.315,7.498 -0.097,14.959 -1.236,22.392 -0.983,6.415 -2.548,12.676 -4.57,18.822 -2.526,7.676 -5.921,14.966 -10.059,21.916 -6.137,10.306 -13.48,19.609 -22.444,27.635 -6.888,6.168 -14.324,11.514 -22.571,15.7 -6.491,3.295 -13.21,6.014 -20.323,7.687 -1.545,0.363 -3.082,0.769 -4.606,1.214 -1.173,0.343 -1.791,1.26 -1.815,2.572 -0.008,0.448 0.115,0.899 0.089,1.343 -0.011,0.172 -0.241,0.419 -0.42,0.475 -0.427,0.132 -0.88,0.228 -1.325,0.241 -3.404,0.098 -6.809,0.179 -10.214,0.252 -8.987,0.192 -17.929,-0.432 -26.813,-1.732 -8.201,-1.2 -16.301,-2.925 -24.264,-5.254 -14.259,-4.169 -27.676,-10.165 -39.986,-18.521 -7.35,-4.99 -14.141,-10.644 -20.049,-17.315 -4.907,-5.541 -9.307,-11.443 -12.841,-17.959 -7.41,-13.663 -11.655,-28.273 -12.87,-43.744 -0.596,-7.588 -0.503,-15.181 0.39,-22.766 0.96,-8.146 2.743,-16.097 5.269,-23.882 2.988,-9.21 7.041,-17.931 12.106,-26.195 4.226,-6.895 9.041,-13.338 14.443,-19.338 7.022,-7.802 14.985,-14.508 23.783,-20.248 7.648,-4.991 15.794,-8.97 24.403,-11.929 C -24.887,1.949 -12.594,-0.002 0,0 m 17.495,240.691 c 7.078,-0.261 14.465,-0.277 21.798,-1.213 2.246,-0.287 4.469,-0.799 6.675,-1.325 15.418,-3.667 29.094,-10.818 41.209,-20.941 7.792,-6.511 14.506,-14.043 20.25,-22.43 8.95,-13.065 15.265,-27.305 18.973,-42.685 1.57,-6.511 2.705,-13.102 3.161,-19.808 0.27,-3.965 0.577,-7.923 0.519,-11.898 -0.141,-9.57 -1.307,-19.006 -3.711,-28.282 C 121.84,74.648 114.142,58.72 103.398,44.23 96.738,35.248 89.152,27.141 80.6,19.961 68.142,9.501 54.312,1.352 38.94,-4.063 32.623,-6.289 26.151,-7.983 19.542,-9.179 c -4.479,-0.809 -8.988,-1.275 -13.506,-1.706 -0.902,-0.086 -1.815,-0.069 -2.723,-0.074 -2.044,-0.01 -4.089,0.029 -6.132,-0.01 -7.189,-0.135 -14.276,0.766 -21.299,2.175 -16.015,3.215 -30.699,9.605 -44.212,18.735 -11.957,8.08 -22.278,17.913 -31.124,29.283 -6.931,8.91 -12.542,18.614 -17.059,28.965 -3.189,7.309 -5.669,14.855 -7.349,22.624 -2.433,11.25 -3.452,22.628 -2.437,34.163 1.122,12.754 4.099,25.048 8.63,36.998 3.438,9.067 7.95,17.57 13.541,25.483 5.19,7.348 11.084,14.064 17.903,19.989 9.516,8.268 20.117,14.734 31.623,19.794 7.92,3.483 16.138,6.057 24.526,8.122 10.39,2.559 20.949,4.041 31.615,4.724 5.211,0.334 10.437,0.405 15.956,0.605" />
          </g>
          <g
             
             transform="matrix(0.50902012,0,0,-0.50902012,-14.307777,362.91041)"
             id="g156">
            <path
               inkscape:connector-curvature="0"
               id="path158"
               style="fill:red;fill-opacity:1;fill-rule:nonzero;"
               d="m 0,0 c 0,-0.681 0.03,-1.362 -0.006,-2.041 -0.186,-3.573 -4.241,-6.826 -7.447,-6.649 -1.364,0.075 -2.327,0.794 -2.885,2.048 -0.423,0.952 -0.512,1.97 -0.6,2.988 -0.382,4.476 -1.982,8.59 -3.782,12.641 -0.182,0.411 -0.456,0.783 -0.689,1.171 -0.401,0.667 -1.02,0.904 -1.742,0.752 -3.108,-0.647 -6.211,-1.318 -9.312,-2 -0.701,-0.153 -0.988,-0.659 -0.714,-1.223 1.642,-3.375 2.753,-6.952 3.979,-10.484 1.004,-2.892 2.026,-5.776 3.313,-8.56 1.008,-2.184 2.312,-4.15 3.956,-5.909 1.278,-1.366 2.807,-2.333 4.575,-2.826 1.851,-0.515 3.729,-0.952 5.688,-0.933 4.427,0.043 7.878,1.831 10.269,5.582 0.918,1.439 1.623,2.986 2.212,4.587 0.947,2.564 1.558,5.212 1.993,7.905 0.452,2.798 0.889,5.598 1.342,8.396 0.181,1.117 0.394,2.23 0.579,3.346 0.064,0.379 -0.156,0.657 -0.449,0.832 -0.288,0.172 -0.614,0.301 -0.939,0.388 -3.08,0.823 -6.235,1.179 -9.4,1.461 -0.336,0.029 -0.678,-0.019 -1.018,-0.034 -0.246,-0.013 -0.654,-0.482 -0.607,-0.715 0.182,-0.885 0.368,-1.769 0.56,-2.652 C -0.545,5.409 -0.051,2.736 0,0 M 18.572,6.754 C 18.467,6.089 18.336,5.545 18.3,4.994 18.053,1.257 17.616,-2.46 16.976,-6.148 c -0.842,-4.845 -2.374,-9.456 -4.908,-13.697 -1.647,-2.759 -3.742,-5.119 -6.366,-7.001 -3.4,-2.439 -7.251,-3.733 -11.342,-4.296 -2.883,-0.396 -5.677,0.257 -8.256,1.538 -5.488,2.728 -10.121,6.503 -13.381,11.751 -1.734,2.79 -3.245,5.72 -4.823,8.605 -1.96,3.581 -3.887,7.181 -5.826,10.774 -0.595,1.103 -1.262,2.151 -2.176,3.026 -0.357,0.343 -0.789,0.474 -1.242,0.38 -0.552,-0.116 -1.091,-0.306 -1.621,-0.5 -5.005,-1.833 -10.002,-3.687 -15.012,-5.508 -2.984,-1.084 -5.981,-2.134 -8.981,-3.175 -6.779,-2.353 -13.759,-3.779 -20.875,-4.666 -3.848,-0.479 -7.69,-0.635 -11.549,-0.537 -4.796,0.121 -9.499,0.833 -13.968,2.651 -1.673,0.682 -3.311,1.491 -4.867,2.408 -1.672,0.985 -2.18,2.424 -1.603,4.425 0.86,2.979 2.827,5.129 5.596,6.525 0.832,0.42 1.742,0.53 2.657,0.393 2.13,-0.318 4.264,-0.625 6.38,-1.023 2.005,-0.378 4.011,-0.788 5.979,-1.323 4.098,-1.116 8.265,-1.305 12.48,-1.244 6.863,0.1 13.517,1.439 20.091,3.26 5.469,1.515 10.781,3.515 16.148,5.341 5.583,1.9 11.157,3.821 16.824,5.468 4.811,1.397 9.7,2.414 14.679,2.823 5.09,0.418 10.197,0.437 15.297,-0.155 4.626,-0.537 9.216,-1.247 13.75,-2.305 12.076,-2.817 23.219,-7.717 33.273,-15.012 1.374,-0.997 2.67,-2.106 3.96,-3.214 0.73,-0.627 0.851,-1.565 0.454,-2.497 -0.67,-1.579 -2.052,-2.157 -3.599,-1.472 -0.932,0.413 -1.841,0.881 -2.763,1.32 -4.608,2.194 -9.192,4.441 -13.833,6.561 -2.473,1.128 -5.041,2.047 -7.578,3.033 -0.4,0.155 -0.86,0.155 -1.403,0.245" />
          </g>
          <g
             
             transform="matrix(0.50902012,0,0,-0.50902012,-57.425648,322.18931)"
             id="g160">
            <path
               inkscape:connector-curvature="0"
               id="path162"
               style="fill:red;fill-opacity:1;fill-rule:nonzero;"
               d="m 0,0 c -0.316,0.6 -0.884,0.749 -1.371,0.97 -1.652,0.749 -3.337,1.426 -4.986,2.183 -1.647,0.756 -3.297,1.52 -4.889,2.383 -1.493,0.809 -2.109,2.135 -1.365,4.081 1.134,2.967 5.038,5.359 8.164,5.131 0.816,-0.06 1.525,-0.407 2.25,-0.73 3.315,-1.477 6.617,-2.982 9.953,-4.408 2.987,-1.276 2.643,-1.422 5.003,0.814 2.635,2.497 5.251,5.014 7.874,7.524 0.574,0.549 1.102,1.156 1.726,1.639 0.621,0.479 1.295,0.94 2.018,1.228 2.175,0.867 4.477,-0.318 5.107,-2.563 0.477,-1.702 0.34,-3.369 -0.366,-4.984 C 28.614,12.113 27.939,11.06 27.038,10.181 25.657,8.836 24.25,7.517 22.832,6.213 22.084,5.526 21.286,4.896 20.551,4.272 c 0.057,-0.319 0.023,-0.6 0.148,-0.742 0.37,-0.422 0.785,-0.809 1.215,-1.175 3.024,-2.572 6.062,-5.13 9.083,-7.707 0.776,-0.662 1.536,-1.347 2.259,-2.067 1.055,-1.051 1.192,-2.164 0.464,-3.387 -1.165,-1.958 -2.896,-3.168 -5.089,-3.682 -1.365,-0.322 -2.706,-0.203 -3.92,0.616 -1.598,1.079 -3.223,2.119 -4.802,3.225 -2.324,1.626 -4.614,3.299 -6.926,4.943 -0.64,0.454 -1.214,1.035 -2.04,1.168 -0.598,-0.092 -0.988,-0.516 -1.397,-0.896 -1.661,-1.546 -3.314,-3.1 -4.969,-4.653 -2.734,-2.564 -5.569,-5.006 -8.679,-7.111 -0.657,-0.446 -1.317,-0.89 -2.004,-1.284 -1.106,-0.634 -2.311,-0.911 -3.587,-0.911 -1.482,0 -2.633,0.851 -2.985,2.292 -0.443,1.812 -0.342,3.596 0.352,5.34 0.907,2.279 2.407,4.096 4.344,5.561 1.085,0.821 2.226,1.567 3.326,2.369 1.375,1.002 2.744,2.015 4.092,3.052 C -0.315,-0.585 -0.177,-0.25 0,0" />
          </g>
          <g
             
             transform="matrix(0.50902012,0,0,-0.50902012,-9.2439415,325.05753)"
             id="g164">
            <path
               inkscape:connector-curvature="0"
               id="path166"
               style="fill:red;fill-opacity:1;fill-rule:nonzero;"
               d="m 0,0 c -1.718,-0.732 -3.066,-1.561 -4.398,-2.421 -2.096,-1.353 -4.202,-2.69 -6.306,-4.029 -0.478,-0.304 -0.954,-0.615 -1.456,-0.876 -0.502,-0.26 -1.02,-0.504 -1.556,-0.68 -3.729,-1.226 -6.945,1.663 -6.162,5.528 0.326,1.612 1.109,2.974 2.357,4.036 0.687,0.585 1.439,1.102 2.201,1.589 1.718,1.098 3.467,2.15 5.192,3.24 0.665,0.421 1.297,0.895 2.044,1.415 -0.385,0.516 -0.665,1.011 -1.055,1.395 -1.776,1.75 -3.597,3.455 -5.374,5.205 -1.291,1.272 -2.579,2.551 -3.788,3.899 -0.936,1.044 -0.825,2.392 0.213,3.337 1.972,1.795 4.295,2.463 6.92,1.968 1.03,-0.194 1.891,-0.759 2.627,-1.489 1.287,-1.277 2.561,-2.569 3.823,-3.872 1.738,-1.79 3.452,-3.601 5.19,-5.391 0.674,-0.695 1.103,-0.733 2.133,-0.236 1.735,0.838 3.467,1.683 5.196,2.534 3.661,1.806 7.357,3.528 11.22,4.871 0.749,0.261 1.5,0.513 2.252,0.764 1.212,0.404 2.454,0.423 3.7,0.237 1.629,-0.243 2.894,-1.53 3.111,-3.163 C 28.345,15.902 27.716,14.29 26.13,13.08 25.222,12.388 24.21,11.894 23.147,11.475 19.248,9.935 15.359,8.366 11.472,6.797 10.771,6.514 9.968,6.393 9.5,5.702 9.62,5.2 9.991,4.937 10.383,4.704 c 2.434,-1.449 4.873,-2.892 7.31,-4.337 1.268,-0.751 2.546,-1.484 3.801,-2.257 0.479,-0.295 0.929,-0.65 1.345,-1.029 0.832,-0.756 1.025,-2.147 0.485,-3.136 -0.388,-0.71 -0.922,-1.292 -1.581,-1.751 -1.324,-0.922 -2.802,-1.492 -4.392,-1.716 -1.985,-0.281 -3.764,0.131 -5.442,1.358 C 8.616,-5.756 5.225,-3.482 1.867,-1.163 1.312,-0.78 0.723,-0.448 0,0" />
          </g>
        </g>
      </g>
    </g>
  </g>
</svg>
